<?xml version="1.0" encoding="UTF-8"?>
<!--
  Simple open-source SVG icon for Linux Sysinfo Monitor
  License: MIT
-->
<svg width="128" height="128" viewBox="0 0 64 64" xmlns="http://www.w3.org/2000/svg">
  <!-- Monitor frame -->
  <rect x="8" y="12" width="48" height="32" fill="#4CAF50" stroke="#333" stroke-width="2" rx="2" ry="2"/>
  <!-- Represent CPU, Memory, Disk, Network inside monitor -->
  <!-- CPU chip -->
  <rect x="12" y="16" width="12" height="8" fill="#fff" stroke="#333" stroke-width="1" rx="1" ry="1"/>
  <line x1="12" y1="14" x2="12" y2="12" stroke="#333" stroke-width="1"/>
  <line x1="16" y1="14" x2="16" y2="12" stroke="#333" stroke-width="1"/>
  <line x1="18" y1="14" x2="18" y2="12" stroke="#333" stroke-width="1"/>
  <line x1="20" y1="14" x2="20" y2="12" stroke="#333" stroke-width="1"/>
  <!-- RAM stick -->
  <rect x="36" y="16" width="12" height="6" fill="#fff" stroke="#333" stroke-width="1" rx="1" ry="1"/>
  <line x1="38" y1="22" x2="38" y2="24" stroke="#333" stroke-width="1"/>
  <line x1="42" y1="22" x2="42" y2="24" stroke="#333" stroke-width="1"/>
  <line x1="46" y1="22" x2="46" y2="24" stroke="#333" stroke-width="1"/>
  <!-- Disk -->
  <circle cx="18" cy="36" r="5" fill="#fff" stroke="#333" stroke-width="1"/>
  <!-- Network waves -->
  <path d="M42 34 q4 -4 8 0" fill="none" stroke="#fff" stroke-width="2"/>
  <path d="M42 38 q4 -4 8 0" fill="none" stroke="#fff" stroke-width="2"/>
  <!-- Stand -->
  <rect x="24" y="46" width="16" height="4" fill="#333"/>
  <rect x="28" y="50" width="8" height="2" fill="#333"/>
</svg>
